<svg version="1.1" id="Layer_1" xmlns="http://www.w3.org/2000/svg" xmlns:xlink="http://www.w3.org/1999/xlink" x="0px" y="0px"
	 width="100%" viewBox="0 0 763 327" enable-background="new 0 0 763 327" xml:space="preserve">
<path fill="#000000" opacity="1.000000" stroke="none" 
	d="
M455.000000,328.000000 
	C303.367981,328.000000 152.235992,328.000000 1.051994,328.000000 
	C1.051994,219.059677 1.051994,110.119324 1.051994,1.089484 
	C255.215317,1.089484 509.430695,1.089484 763.822998,1.089484 
	C763.822998,109.999779 763.822998,218.999863 763.822998,328.000000 
	C661.119324,328.000000 558.309692,328.000000 455.000000,328.000000 
M547.859741,135.281128 
	C536.262207,142.708328 525.021484,150.780258 512.996094,157.434219 
	C484.223389,173.354828 454.069550,186.416702 421.834625,193.202438 
	C400.117096,197.774170 377.919647,200.763641 355.783325,202.474808 
	C327.006897,204.699234 298.486084,201.232285 270.186493,195.137573 
	C247.485260,190.248581 225.720703,182.824844 204.651901,173.454468 
	C184.198486,164.357742 164.580551,153.518967 146.447372,140.247604 
	C138.839935,134.679825 131.312363,128.980240 124.029358,122.998589 
	C117.513626,117.647118 111.225014,111.991982 105.126686,106.166710 
	C98.452332,99.791199 92.060661,93.115570 85.651794,86.468529 
	C83.368149,84.100021 81.198471,81.569542 79.315582,78.876144 
	C72.765678,69.506706 66.492180,59.942066 59.846882,50.642220 
	C56.972507,46.619637 53.447296,43.062115 50.217724,39.293343 
	C49.538960,39.635612 48.860195,39.977882 48.181435,40.320156 
	C48.382668,42.606400 47.950630,45.201786 48.890644,47.127380 
	C53.978443,57.549587 59.099464,67.978027 64.774948,78.086586 
	C80.234192,105.620895 98.147087,131.584961 118.851067,155.352051 
	C132.376358,170.878357 147.127075,185.549042 162.691040,199.030441 
	C179.689651,213.754578 198.286621,226.648438 218.326050,237.147324 
	C249.580536,253.521942 281.859680,266.957092 316.785217,273.749786 
	C343.346405,278.915771 369.949890,282.437134 397.000153,281.048828 
	C411.421326,280.308655 425.913513,279.387146 440.162354,277.182220 
	C469.114838,272.701965 497.174622,264.957245 524.229736,253.302002 
	C557.443481,238.993561 588.052246,220.708939 615.542725,197.237488 
	C618.153992,195.007980 619.949646,195.537781 621.842590,197.778702 
	C628.776489,205.987091 635.662415,214.236115 642.624512,222.420395 
	C644.778931,224.953110 647.118408,227.328445 649.733521,230.166992 
	C650.586121,228.513046 651.127808,227.699738 651.447571,226.806976 
	C658.099182,208.233734 664.722229,189.650269 671.358337,171.071457 
	C676.723938,156.049896 682.107910,141.034897 687.468384,126.011497 
	C694.098389,107.430038 700.782776,88.867325 707.267944,70.235359 
	C708.417786,66.931648 708.710022,63.329407 709.398254,59.865028 
	C706.061768,60.156769 702.657166,60.118896 699.399475,60.791908 
	C671.074768,66.643501 642.784302,72.660881 614.467529,78.551369 
	C592.665039,83.086754 570.830444,87.468277 549.030762,92.017029 
	C544.374146,92.988686 539.806641,94.386810 535.064941,95.623184 
	C535.325500,96.348663 535.374207,96.888321 535.661316,97.224236 
	C542.114929,104.775139 548.559143,112.334549 555.080994,119.826408 
	C560.134094,125.631058 560.123352,126.408150 554.137085,130.881775 
	C552.282837,132.267441 550.353149,133.552170 547.859741,135.281128 
z"/>
<path fill="#1E1E1C" opacity="1.000000" stroke="none" 
	d="
M548.158875,135.082123 
	C550.353149,133.552170 552.282837,132.267441 554.137085,130.881775 
	C560.123352,126.408150 560.134094,125.631058 555.080994,119.826408 
	C548.559143,112.334549 542.114929,104.775139 535.661316,97.224236 
	C535.374207,96.888321 535.325500,96.348663 535.064941,95.623184 
	C539.806641,94.386810 544.374146,92.988686 549.030762,92.017029 
	C570.830444,87.468277 592.665039,83.086754 614.467529,78.551369 
	C642.784302,72.660881 671.074768,66.643501 699.399475,60.791908 
	C702.657166,60.118896 706.061768,60.156769 709.398254,59.865028 
	C708.710022,63.329407 708.417786,66.931648 707.267944,70.235359 
	C700.782776,88.867325 694.098389,107.430038 687.468384,126.011497 
	C682.107910,141.034897 676.723938,156.049896 671.358337,171.071457 
	C664.722229,189.650269 658.099182,208.233734 651.447571,226.806976 
	C651.127808,227.699738 650.586121,228.513046 649.733521,230.166992 
	C647.118408,227.328445 644.778931,224.953110 642.624512,222.420395 
	C635.662415,214.236115 628.776489,205.987091 621.842590,197.778702 
	C619.949646,195.537781 618.153992,195.007980 615.542725,197.237488 
	C588.052246,220.708939 557.443481,238.993561 524.229736,253.302002 
	C497.174622,264.957245 469.114838,272.701965 440.162354,277.182220 
	C425.913513,279.387146 411.421326,280.308655 397.000153,281.048828 
	C369.949890,282.437134 343.346405,278.915771 316.785217,273.749786 
	C281.859680,266.957092 249.580536,253.521942 218.326050,237.147324 
	C198.286621,226.648438 179.689651,213.754578 162.691040,199.030441 
	C147.127075,185.549042 132.376358,170.878357 118.851067,155.352051 
	C98.147087,131.584961 80.234192,105.620895 64.774948,78.086586 
	C59.099464,67.978027 53.978443,57.549587 48.890644,47.127380 
	C47.950630,45.201786 48.382668,42.606400 48.181435,40.320156 
	C48.860195,39.977882 49.538960,39.635612 50.217724,39.293343 
	C53.447296,43.062115 56.972507,46.619637 59.846882,50.642220 
	C66.492180,59.942066 72.765678,69.506706 79.315582,78.876144 
	C81.198471,81.569542 83.368149,84.100021 85.651794,86.468529 
	C92.060661,93.115570 98.452332,99.791199 105.126686,106.166710 
	C111.225014,111.991982 117.513626,117.647118 124.029358,122.998589 
	C131.312363,128.980240 138.839935,134.679825 146.447372,140.247604 
	C164.580551,153.518967 184.198486,164.357742 204.651901,173.454468 
	C225.720703,182.824844 247.485260,190.248581 270.186493,195.137573 
	C298.486084,201.232285 327.006897,204.699234 355.783325,202.474808 
	C377.919647,200.763641 400.117096,197.774170 421.834625,193.202438 
	C454.069550,186.416702 484.223389,173.354828 512.996094,157.434219 
	C525.021484,150.780258 536.262207,142.708328 548.158875,135.082123 
z"/>
</svg>